<mxfile host="app.diagrams.net" agent="Mozilla/5.0 (Windows NT 10.0; Win64; x64; rv:130.0) Gecko/20100101 Firefox/130.0" version="24.7.14">
  <diagram name="Page-1" id="TglAqCMfLZPSOPnosyh2">
    <mxGraphModel dx="819" dy="415" grid="1" gridSize="10" guides="1" tooltips="1" connect="1" arrows="1" fold="1" page="1" pageScale="1" pageWidth="1169" pageHeight="827" math="0" shadow="0">
      <root>
        <mxCell id="0" />
        <mxCell id="1" parent="0" />
        <mxCell id="29_9Ma1q8xZSYtM6g1VS-1" value="k d]ad] " style="ellipse;whiteSpace=wrap;html=1;aspect=fixed;fillColor=#f8cecc;strokeColor=#b85450;" vertex="1" parent="1">
          <mxGeometry x="470" y="240" width="80" height="80" as="geometry" />
        </mxCell>
        <mxCell id="29_9Ma1q8xZSYtM6g1VS-2" value="" style="whiteSpace=wrap;html=1;aspect=fixed;" vertex="1" parent="1">
          <mxGeometry x="470" y="90" width="80" height="80" as="geometry" />
        </mxCell>
        <mxCell id="29_9Ma1q8xZSYtM6g1VS-4" style="edgeStyle=orthogonalEdgeStyle;rounded=0;orthogonalLoop=1;jettySize=auto;html=1;exitX=0.25;exitY=1;exitDx=0;exitDy=0;entryX=0.4;entryY=1.013;entryDx=0;entryDy=0;entryPerimeter=0;" edge="1" parent="1" source="29_9Ma1q8xZSYtM6g1VS-2" target="29_9Ma1q8xZSYtM6g1VS-2">
          <mxGeometry relative="1" as="geometry" />
        </mxCell>
        <mxCell id="29_9Ma1q8xZSYtM6g1VS-5" value="" style="endArrow=classic;html=1;rounded=0;exitX=0.5;exitY=0;exitDx=0;exitDy=0;entryX=0.5;entryY=1;entryDx=0;entryDy=0;" edge="1" parent="1" source="29_9Ma1q8xZSYtM6g1VS-1" target="29_9Ma1q8xZSYtM6g1VS-2">
          <mxGeometry width="50" height="50" relative="1" as="geometry">
            <mxPoint x="485" y="240" as="sourcePoint" />
            <mxPoint x="535" y="190" as="targetPoint" />
          </mxGeometry>
        </mxCell>
        <mxCell id="29_9Ma1q8xZSYtM6g1VS-8" value="&lt;div&gt;Name: &lt;br&gt;&lt;/div&gt;" style="rounded=1;whiteSpace=wrap;html=1;" vertex="1" parent="1">
          <mxGeometry x="610" y="200" width="120" height="60" as="geometry" />
        </mxCell>
      </root>
    </mxGraphModel>
  </diagram>
</mxfile>
